<?xml version="1.0" encoding="utf-8"?>
<!DOCTYPE svg PUBLIC "-//W3C//DTD SVG 1.1//EN" "http://www.w3.org/Graphics/SVG/1.1/DTD/svg11.dtd">
<svg version="1.1" id="图形" xmlns="http://www.w3.org/2000/svg" xmlns:xlink="http://www.w3.org/1999/xlink" x="0px" y="0px" width="1352px" height="1024px" viewBox="0 0 1352 1024" enable-background="new 0 0 1352 1024" xml:space="preserve">
  <path fill="#ea8010" d="M1086.647067 396.387192c-13.659887 211.574649-160.805744 415.612808-430.644827 415.612808-246.820024 0-437.136857-183.456171-447.233295-428.289674-135.042419-42.02412-208.768945-186.528109-208.768945-291.711286 0-161.952601 134.591868-303.99904 288.00448-303.99904l767.98464 0c155.091938 0 288.00448 167.174897 288.00448 303.99904 0 165.331733-135.124338 294.639867-257.346533 304.388152zM1056.0096-179.9904l-767.98464 0c-136.373593 0-255.99488 127.096338-255.99488 271.98944 0 97.626207 85.563729 271.98944 255.99488 271.98944l48.00416 0c8.826703 0 15.99456 7.167857 15.99456 15.99456s-7.167857 15.99456-15.99456 15.99456l-48.00416 0c-16.281274 0-31.681926-1.822684-46.693466-4.444071 12.553989 191.668487 158.245795 388.436391 414.670747 388.436391 274.815624 0 399.98688-215.650087 399.98688-416.00192l0-48.00416c0-8.826703 7.167857-15.99456 15.99456-15.99456s15.99456 7.167857 15.99456 15.99456l0 48.00416c0 0.102398 0 0.184316 0 0.286714 96.602228-10.587948 224.00576-114.276114 224.00576-272.276154 0-122.426991-118.105798-271.98944-255.99488-271.98944z" transform="translate(0, 812) scale(1, -1)"/>
</svg>
