<?xml version="1.0" encoding="utf-8"?>
<!DOCTYPE svg PUBLIC "-//W3C//DTD SVG 1.1//EN" "http://www.w3.org/Graphics/SVG/1.1/DTD/svg11.dtd">
<svg version="1.1" id="图形" xmlns="http://www.w3.org/2000/svg" xmlns:xlink="http://www.w3.org/1999/xlink" x="0px" y="0px" width="1024px" height="1024px" viewBox="0 0 1024 1024" enable-background="new 0 0 1024 1024" xml:space="preserve">
  <path fill="#56abe4" d="M651.324162 13.27472c0 10.752902-7.756661 19.458167-17.308201 19.458167L391.774825 32.732887c-9.550517 0-17.303085-8.705266-17.303085-19.458167l0-77.82346L201.435779-64.54874l0-58.363246 622.905926 0 0 58.363246L651.324162-64.54874 651.324162 13.27472 651.324162 13.27472 651.324162 13.27472zM902.027018 722.35326 123.768885 722.35326c-32.243355 0-58.366316-26.104541-58.366316-58.347896l0-544.776498c0-32.220842 26.122961-58.368362 58.366316-58.368362l778.259156 0c32.243355 0 58.368362 26.146497 58.368362 58.368362L960.396403 664.005364C960.39538 696.249743 934.271396 722.35326 902.027018 722.35326L902.027018 722.35326 902.027018 722.35326zM902.027018 138.72285c0-10.733459-8.722662-19.452028-19.457144-19.452028L143.227052 119.270822c-10.752902 0-19.453051 8.718569-19.453051 19.452028L123.774001 644.56664c0 10.756995 8.700149 19.457144 19.453051 19.457144l739.343845 0c10.733459 0 19.457144-8.699126 19.457144-19.457144L902.028041 138.72285 902.027018 138.72285 902.027018 138.72285zM702.71153 175.945613l105.261369 0L807.972898 482.40433 702.71153 482.40433 702.71153 175.945613 702.71153 175.945613 702.71153 175.945613zM534.294772 175.945613l105.260345 0L639.555118 576.698926 534.294772 576.698926 534.294772 175.945613 534.294772 175.945613 534.294772 175.945613zM218.512712 175.945613l105.260345 0L323.773058 293.813091 218.512712 293.813091 218.512712 175.945613 218.512712 175.945613 218.512712 175.945613zM365.876991 175.945613l105.261369 0L471.13836 388.131223 365.876991 388.131223 365.876991 175.945613 365.876991 175.945613 365.876991 175.945613zM365.876991 175.945613" transform="translate(0, 812) scale(1, -1)"/>
</svg>
