<?xml version="1.0" encoding="utf-8"?>
<!DOCTYPE svg PUBLIC "-//W3C//DTD SVG 1.1//EN" "http://www.w3.org/Graphics/SVG/1.1/DTD/svg11.dtd">
<svg version="1.1" id="图形" xmlns="http://www.w3.org/2000/svg" xmlns:xlink="http://www.w3.org/1999/xlink" x="0px" y="0px" width="1024px" height="1024px" viewBox="0 0 1024 1024" enable-background="new 0 0 1024 1024" xml:space="preserve">
  <path fill="#ffffff" d="M420.096 721.76l180.032 0 0-663.552-180.032 0 0 663.552ZM180.224 414.368l179.968 0 0-356.16-179.968 0 0 356.16ZM660.032 533.344l180.032 0 0-475.2-180.032 0 0 475.2ZM64-4.64l896 0 0-117.12-896 0 0 117.12ZM485.76 652.384l114.368 0 0-594.24-114.368 0 0 594.24ZM245.824 346.848l114.368 0 0-288.704-114.368 0 0 288.704ZM725.696 470.56l114.368 0 0-412.352-114.368 0 0 412.352ZM123.072-63.648l836.928 0 0-58.112-836.928 0 0 58.112Z" transform="translate(0, 812) scale(1, -1)"/>
</svg>
