<?xml version="1.0" encoding="utf-8"?>
<!DOCTYPE svg PUBLIC "-//W3C//DTD SVG 1.1//EN" "http://www.w3.org/Graphics/SVG/1.1/DTD/svg11.dtd">
<svg version="1.1" id="图形" xmlns="http://www.w3.org/2000/svg" xmlns:xlink="http://www.w3.org/1999/xlink" x="0px" y="0px" width="1024px" height="1024px" viewBox="0 0 1024 1024" enable-background="new 0 0 1024 1024" xml:space="preserve">
  <path fill="#ffffff" d="M892.51968 741.6 132.76544 741.6c-41.37984 0-74.91072-33.53472-74.91072-74.9056l0-306.24 0-12.06912 0-383.84512c0-41.37984 33.53984-74.91072 74.91072-74.91072l54.6752 0 0.49024 0.57984c1.984-0.37504 4.02688-0.57984 6.11968-0.57984l395.93856 0 153.3888 0 149.14176 0c41.37472 0 74.9056 33.54112 74.9056 74.91072L967.42528 666.6944C967.42528 708.0704 933.88544 741.6 892.51968 741.6zM901.89056-7.37024c0-20.68992-16.76032-37.4592-37.4656-37.4592l-121.04704 0-97.4464 0L242.85184-44.82944l-48.80128 0-33.20064 0c-20.6848 0-37.46048 16.75392-37.46048 37.4592L123.38944 348.38528l0 12.06912L123.38944 638.6048c0 20.68992 16.76032 37.46048 37.46048 37.46048l703.57504 0c20.68992 0 37.4656-16.76032 37.4656-37.46048L901.89056-7.37024zM306.67776 553.21472l64.064-2.3616c18.65984 1.41952 32.63616 17.69984 31.21664 36.3584-1.41952 18.65984-17.69984 32.63616-36.3584 31.21664l-156.68096 5.77664c-18.65984-1.41952-32.63616-17.69984-31.21664-36.35968 0.00512-0.05888 0.01792-0.1152 0.02176-0.17408 0.00384-0.05888 0-0.11648 0.00512-0.17536l0.05376-0.27904c0.20992-2.21952 0.61952-4.37248 1.23008-6.43584l28.13824-147.28704c1.41952-18.65984 17.69984-32.63616 36.3584-31.21664 18.65984 1.41952 32.63616 17.69984 31.21664 36.3584l-11.83232 61.93792 129.91104-130.30144c12.95488-13.29536 34.23616-13.57184 47.53152-0.61696 13.29664 12.95488 13.57184 34.23616 0.61696 47.53152L306.67776 553.21472zM719.4944 553.21472l-64.064-2.3616c-18.65984 1.41952-32.63616 17.69984-31.21664 36.3584 1.41952 18.65984 17.69984 32.63616 36.3584 31.21664l156.68096 5.77664c18.65984-1.41952 32.63616-17.69984 31.21664-36.35968-0.00384-0.05888-0.01664-0.1152-0.02176-0.17408-0.00384-0.05888 0-0.11648-0.00512-0.17536l-0.05376-0.27904c-0.20992-2.21952-0.61952-4.37248-1.23008-6.43584l-28.13824-147.28704c-1.41952-18.65984-17.69984-32.63616-36.3584-31.21664-18.65984 1.41952-32.63616 17.69984-31.21664 36.3584l11.83232 61.93792L633.3696 370.27328c-12.95488-13.29536-34.23616-13.57184-47.53152-0.61696-13.29664 12.95488-13.57184 34.23616-0.61696 47.53152L719.4944 553.21472zM306.67776 76.54656l64.064 2.3616c18.65984-1.41952 32.63616-17.69984 31.21664-36.3584-1.41952-18.65984-17.69984-32.63616-36.3584-31.21664l-156.68096-5.77664c-18.65984 1.41952-32.63616 17.69984-31.21664 36.35968 0.00512 0.05888 0.01792 0.1152 0.02176 0.17408 0.00384 0.05888 0 0.11648 0.00512 0.17536l0.05376 0.27904c0.20992 2.21952 0.61952 4.37248 1.23008 6.43584l28.13824 147.28704c1.41952 18.65984 17.69984 32.63616 36.3584 31.21664 18.65984-1.41952 32.63616-17.69984 31.21664-36.3584l-11.83232-61.93792 129.91104 130.30144c12.95488 13.29536 34.23616 13.57184 47.53152 0.61696 13.29664-12.95488 13.57184-34.23616 0.61696-47.53152L306.67776 76.54656zM719.4944 76.54656l-64.064 2.3616c-18.65984-1.41952-32.63616-17.69984-31.21664-36.3584 1.41952-18.65984 17.69984-32.63616 36.3584-31.21664l156.68096-5.77664c18.65984 1.41952 32.63616 17.69984 31.21664 36.35968-0.00384 0.05888-0.01664 0.1152-0.02176 0.17408-0.00384 0.05888 0 0.11648-0.00512 0.17536l-0.05376 0.27904c-0.20992 2.21952-0.61952 4.37248-1.23008 6.43584L819.02336 196.2688c-1.41952 18.65984-17.69984 32.63616-36.3584 31.21664-18.65984-1.41952-32.63616-17.69984-31.21664-36.3584l11.83232-61.93792L633.3696 259.48928c-12.95488 13.29536-34.23616 13.57184-47.53152 0.61696-13.29664-12.95488-13.57184-34.23616-0.61696-47.53152L719.4944 76.54656z" transform="translate(0, 812) scale(1, -1)"/>
</svg>
