<?xml version="1.0" encoding="utf-8"?>
<!DOCTYPE svg PUBLIC "-//W3C//DTD SVG 1.1//EN" "http://www.w3.org/Graphics/SVG/1.1/DTD/svg11.dtd">
<svg version="1.1" id="图形" xmlns="http://www.w3.org/2000/svg" xmlns:xlink="http://www.w3.org/1999/xlink" x="0px" y="0px" width="1024px" height="1024px" viewBox="0 0 1024 1024" enable-background="new 0 0 1024 1024" xml:space="preserve">
  <path fill="#ffffff" d="M42.666667 129.333333l0-256c0-47.104 38.229333-85.333333 85.333333-85.333333l85.333333 0c47.104 0 85.333333 38.229333 85.333333 85.333333L298.666667 129.333333c0 47.104-38.229333 85.333333-85.333333 85.333333l85.333333 0L298.666667 300l-85.333333 0L213.333333 670.688c0 58.965333 40.021333 61.354667 40.021333 61.354667C253.354667 755.594667 194.218667 812 170.666667 812 147.114667 812 98.645333 763.616 98.645333 739.978667c0 0 29.354667-4.437333 29.354667-55.978667L128 300l-85.333333 0 0-85.333333 85.333333 0C80.896 214.666667 42.666667 176.437333 42.666667 129.333333L42.666667 129.333333zM981.333333 641.333333c0 47.104-38.144 85.333333-85.333333 85.333333l-85.333333 0c0 47.104-38.144 85.333333-85.333333 85.333333l-170.666667 0c-47.104 0-85.333333-38.144-85.333333-85.333333l-85.333333 0L384 812l-85.333333 0 0-85.333333 0-85.333333 0-85.333333 85.333333 0L384 641.333333l85.333333 0c0-47.104 38.229333-85.333333 85.333333-85.333333l0-682.666667c0-47.104 38.229333-85.333333 85.333333-85.333333 47.189333 0 85.333333 38.229333 85.333333 85.333333L725.333333 556l170.666667 0C943.189333 556 981.333333 594.144 981.333333 641.333333L981.333333 641.333333z" transform="translate(0, 812) scale(1, -1)"/>
</svg>
