<?xml version="1.0" encoding="utf-8"?>
<!DOCTYPE svg PUBLIC "-//W3C//DTD SVG 1.1//EN" "http://www.w3.org/Graphics/SVG/1.1/DTD/svg11.dtd">
<svg version="1.1" id="图形" xmlns="http://www.w3.org/2000/svg" xmlns:xlink="http://www.w3.org/1999/xlink" x="0px" y="0px" width="1024px" height="1024px" viewBox="0 0 1024 1024" enable-background="new 0 0 1024 1024" xml:space="preserve">
  <path fill="#00bb9c" d="M584.452637 174.56108c0 40.549531-32.870642 73.420173-73.420173 73.420173s-73.420173-32.870642-73.420173-73.420173c0-33.199123 22.039969-61.238736 52.283784-70.318532l0-56.156998c0-11.673877 9.462512-21.13639 21.13639-21.13639 11.672854 0 21.135366 9.462512 21.135366 21.13639l0 56.156998C562.412668 113.322343 584.452637 141.361957 584.452637 174.56108zM110.69052 344.647873l0-462.603986c0-49.52802 37.776372-89.677439 84.374666-89.677439l631.934556 0c46.596248 0 84.373643 40.148395 84.373643 89.677439L911.373385 344.647873 110.69052 344.647873zM876.942201-92.641565c0-47.145763-30.27963-79.372745-74.637907-79.372745L219.759611-172.01431c-44.358277 0-74.637907 32.226982-74.637907 79.372745L145.121703 308.029884l731.819474 0L876.941178-92.641565zM230.830761 494.888665c0 159.291936 116.762307 273.073352 278.743492 273.073352 161.982208 0 278.746562-113.781416 278.746562-273.073352l0-142.80238 37.654598 0L825.975413 498.825324c0 169.420621-141.659347 306.762639-316.399113 306.762639-174.742836 0-316.39809-137.342018-316.39809-306.762639l0-146.739039 37.652552 0L230.830761 494.888665z" transform="translate(0, 812) scale(1, -1)"/>
</svg>
