<?xml version="1.0" encoding="utf-8"?>
<!DOCTYPE svg PUBLIC "-//W3C//DTD SVG 1.1//EN" "http://www.w3.org/Graphics/SVG/1.1/DTD/svg11.dtd">
<svg version="1.1" id="图形" xmlns="http://www.w3.org/2000/svg" xmlns:xlink="http://www.w3.org/1999/xlink" x="0px" y="0px" width="1024px" height="1024px" viewBox="0 0 1024 1024" enable-background="new 0 0 1024 1024" xml:space="preserve">
  <path fill="#33475f" d="M304.503808 348.735232c0 66.285568-53.705728 120.0384-120.04864 120.0384-66.244608 0-120.04864-53.751808-120.04864-120.0384 0-66.28864 53.804032-120.039424 120.04864-120.039424C250.797056 228.695808 304.503808 282.446592 304.503808 348.735232zM632.467456 348.735232c0 66.285568-53.706752 120.0384-120.04864 120.0384-66.244608 0-120.049664-53.751808-120.049664-120.0384 0-66.28864 53.805056-120.039424 120.049664-120.039424C578.760704 228.695808 632.467456 282.446592 632.467456 348.735232zM960.429056 348.735232c0 66.285568-53.706752 120.0384-120.04864 120.0384-66.244608 0-120.04864-53.751808-120.04864-120.0384 0-66.28864 53.804032-120.039424 120.04864-120.039424C906.722304 228.695808 960.429056 282.446592 960.429056 348.735232z" transform="translate(0, 812) scale(1, -1)"/>
</svg>
