<?xml version="1.0" encoding="utf-8"?>
<!DOCTYPE svg PUBLIC "-//W3C//DTD SVG 1.1//EN" "http://www.w3.org/Graphics/SVG/1.1/DTD/svg11.dtd">
<svg version="1.1" id="图形" xmlns="http://www.w3.org/2000/svg" xmlns:xlink="http://www.w3.org/1999/xlink" x="0px" y="0px" width="1024px" height="1024px" viewBox="0 0 1024 1024" enable-background="new 0 0 1024 1024" xml:space="preserve">
  <path fill="#ffffff" d="M972.638893 568.167463c-41.061445 2.997903-82.322546 11.130535-117.718897 23.096551-11.464318 3.631681-22.931707 7.663697-34.462577 12.031544-24.331343 7.567453-57.427048 22.566184-94.985821 43.929317-0.401359 0.197608-0.803741 0.431051-1.19998 0.664494-8.835009 5.033365-17.865579 10.400513-27.063039 16.098372-12.398091 7.498854-24.667174 15.498382-36.928066 23.829645-0.466887 0.336855-0.932749 0.633778-1.401684 0.969609-8.79815 5.998878-17.56456 12.195364-26.26237 18.628365-5.664071 4.100616-11.333262 8.466415-16.998357 12.798426-4.264435 3.299946-8.530919 6.399213-12.79945 9.797451-31.195395 24.597551-61.989431 52.195052-90.821725 81.925283-28.827174-29.730231-59.62633-57.327733-90.820701-81.925283-4.264435-3.398238-8.532966-6.497505-12.79945-9.797451-5.667143-4.332011-11.332238-8.69781-16.999381-12.798426-8.698834-6.434025-17.46422-12.631534-26.261346-18.628365-0.465863-0.335831-0.935821-0.633778-1.40066-0.969609-12.266011-8.331263-24.529975-16.330791-36.927042-23.829645-9.201556-5.697859-18.232125-11.066031-27.063039-16.098372-0.401359-0.233443-0.801693-0.465863-1.198957-0.664494-37.562868-21.363132-70.660621-36.361863-94.988892-43.929317-11.532917-4.367847-22.997235-8.398839-34.463601-12.031544-35.394303-11.966016-76.655403-20.098648-117.716849-23.096551 0 0-0.0686 0-0.099316 0 1.197933-19.431082 2.430677-45.196873 3.864101-73.093346 0.233443 0 0.500674 0 0.766882 0.033788 6.932651-104.119801 26.697516-201.042792 56.525015-288.06492 1.334108-3.798573 2.466513-7.766085 3.800621-11.532917 0.633778-1.767207 1.365848-3.397214 2.00065-5.165445 71.386547-194.542215 195.373601-336.093828 344.389256-387.98479l0-0.533438c19.698313-6.865076 36.295312-11.099819 49.391685-13.762915 13.102516 2.66412 29.697467 6.89784 49.392709 13.762915l0 0.533438c149.016679 51.891985 273.003733 193.443598 344.393352 387.986838 0.632754 1.767207 1.366872 3.397214 1.999626 5.165445 1.334108 3.764785 2.46856 7.733321 3.799597 11.532917 29.829547 87.021104 49.595436 183.944095 56.526039 288.063896 0.267231-0.032764 0.534462-0.032764 0.766882-0.032764 1.4324 27.895449 2.665144 53.66124 3.867172 73.092322C972.707493 568.167463 972.638893 568.167463 972.638893 568.167463zM894.717982 507.491663c-6.84767-160.553692-47.007082-307.78883-116.135987-425.790316-33.499112-57.183366-72.88038-105.718069-117.048259-144.257712-44.942952-39.213353-93.923039-67.261359-145.583629-83.36485l-1.95048-0.608181c0 0-1.988363 0.597942-2.003722 0.602038-0.01843-0.005119-2.007817-0.59999-2.007817-0.59999l-1.946385 0.606133c-51.659566 16.103491-100.640677 44.151497-145.582605 83.36485-44.168903 38.539644-83.549147 87.074346-117.049283 144.257712-69.128905 118.001486-109.288318 265.237648-116.137011 425.790316l-0.236515 5.54735 5.411174 1.242983c124.074083 28.504654 251.788038 97.64175 369.332876 199.938032l8.214542 7.140498 8.212494-7.13845c117.545862-102.297305 245.258793-171.435425 369.335948-199.941103l5.411174-1.242983L894.717982 507.491663zM477.13504 91.006314c-5.885228 0-11.401862 2.250475-15.535241 6.335733l-15.876191 15.616127c-0.198632 0.197608-0.410573 0.425932-0.622515 0.653232l-0.159724 0.170987L271.847267 284.60247c-4.089353 4.041231-6.344948 9.423737-6.345971 15.148217 0 5.726528 2.255595 11.111081 6.353139 15.162551l15.807592 15.588483c4.149762 4.091401 9.677658 6.344948 15.562886 6.344948 5.892395 0 11.433602-2.258666 15.604865-6.358258l158.289906-156.271851 269.055674 265.509998c4.140547 4.092425 9.658204 6.341876 15.544456 6.341876 5.890347 0 11.420291-2.253547 15.571077-6.345971l15.765613-15.588483c4.137475-4.067852 6.405356-9.432952 6.409452-15.131835 0.003072-5.715265-2.268905-11.103914-6.397165-15.173814L492.702022 97.34819C488.555332 93.259861 483.026412 91.006314 477.13504 91.006314z" transform="translate(0, 812) scale(1, -1)"/>
</svg>
