<?xml version="1.0" encoding="utf-8"?>
<!DOCTYPE svg PUBLIC "-//W3C//DTD SVG 1.1//EN" "http://www.w3.org/Graphics/SVG/1.1/DTD/svg11.dtd">
<svg version="1.1" id="图形" xmlns="http://www.w3.org/2000/svg" xmlns:xlink="http://www.w3.org/1999/xlink" x="0px" y="0px" width="1024px" height="1024px" viewBox="0 0 1024 1024" enable-background="new 0 0 1024 1024" xml:space="preserve">
  <path fill="#ffffff" d="M512.012 791.571c-278.132 0-503.583-225.451-503.583-503.571 0-278.096 225.451-503.571 503.571-503.571 278.18 0 503.547 225.475 503.547 503.571 0.012 278.12-225.439 503.571-503.535 503.571v0zM808.387-67.944c-32.151 16.111-139.837 37.485-165.894 53.813-29.622 18.7-20.133 120.859-20.133 120.859l20.133 17.617c0 0 5.118 46.263 13.884 62.94 19.579 37.581 40.303 100.726 40.303 100.726s20.133 14.678 20.133 40.29-20.133 40.29-20.133 40.29 7.55 71.285 7.55 120.859c0 104.098-65.337 161.15-182.812 161.15-117.404 0-203.078-48.503-203.078-161.15 0-49.574 15.75-120.859 15.75-120.859s-20.133-14.678-20.133-40.29 20.133-40.29 20.133-40.29 23.529-73.091 40.303-100.726c9.79-16.087 13.811-62.94 13.811-62.94l20.121-17.617c0 0 9.573-102.159-20.121-120.859-26.828-16.834-141.282-39.135-169.278-55.451 1.361-1.313 69.924-60.303 176.105-90.214-199.068 51.85-346.322 232.327-346.322 447.795 0 255.892 207.425 463.22 463.305 463.22s463.256-207.401 463.256-463.22c0-143.076-64.951-270.992-166.882-355.944v0zM433.285-168.080c-11.427 1.927-22.578 4.395-33.74 7.129 10.717-2.902 22.385-4.973 33.74-7.129v0zM433.285-168.080z" transform="translate(0, 812) scale(1, -1)"/>
</svg>
