<?xml version="1.0" encoding="utf-8"?>
<!DOCTYPE svg PUBLIC "-//W3C//DTD SVG 1.1//EN" "http://www.w3.org/Graphics/SVG/1.1/DTD/svg11.dtd">
<svg version="1.1" id="图形" xmlns="http://www.w3.org/2000/svg" xmlns:xlink="http://www.w3.org/1999/xlink" x="0px" y="0px" width="1024px" height="1024px" viewBox="0 0 1024 1024" enable-background="new 0 0 1024 1024" xml:space="preserve">
  <path fill="#9d55b8" d="M629.362988 191.234831c-72.865541 10.70276-60.865229 92.496647-63.253626 91.308589-2.388397-1.192152 0.598634 17.2335 0.598634 17.2335 41.963741 23.394826 56.084343 88.382956 56.084343 88.382956l0 82.461083c0 0-16.675798 88.549755-83.613326 88.549755l-57.674561 28.180829c-74.485435 0-80.699973-116.729561-80.699973-116.729561s0.598634-29.995151 0-75.775824c-0.598634-45.784766 54.484915-96.492658 54.484915-96.492658s2.991124-18.433838 0.594541-17.245779c-2.388397 1.183965 15.015995-79.169107-57.846476-89.871867-72.861448-10.694573-133.182278-55.502082-146.920164-68.585051-23.802102-30.614252-18.348903-105.188714-18.348903-105.188714l558.706765 0c0 0-7.748475 92.118024-21.48636 105.188714C756.249887 135.732749 702.224436 180.540258 629.362988 191.234831zM937.848874 91.018362c-9.652847 9.18008-38.272675 40.665165-89.468684 48.185442-51.188846 7.507998-41.116443 66.607-42.797735 65.773006-1.676176-0.838088 0.423649 12.110829 0.423649 12.110829 29.478382 16.436344 38.853913 60.457954 38.853913 60.457954l0 74.734098c0 0-12.806677 62.207807-59.83169 62.207807l-40.522925 14.09195c-52.335972 0-63.185065-76.30078-63.185065-76.30078s0.419556-37.877679 0-70.034053c-0.423649-32.156374 39.851637-67.799152 39.851637-67.799152s2.095731-12.944823 0.419556-12.114922c-1.013073 0.508583 2.12029-9.127891 6.369058-17.344017 58.407248-36.168758 64.389496-50.089815 69.581752-56.547901 12.19167-8.786107 23.64349-110.85783 23.64349-110.85783l138.248667 1.033539C959.432449 18.616378 947.501722 81.826002 937.848874 91.018362zM301.681924 202.331563c-1.676176-0.829901 0.419556 12.114922 0.419556 12.114922s40.266076 35.643802 39.847543 67.799152 0 70.034053 0 70.034053-10.849092 82.098833-63.185065 82.098833l-40.518832-19.891026c-47.029106 0-62.171991-62.207807-62.171991-62.207807l0-74.734098c0 0 11.711739-44.022633 41.190121-60.457954 0 0 2.099824-19.915585 0.419556-19.073404-1.676176 0.833995 8.391111-51.302433-42.797735-58.810431-51.188846-7.520277-79.812767-39.004339-89.460498-48.185442-9.656941-9.19236-21.587668-72.401983-21.587668-72.401983l138.248667-1.033539c0 0-4.88731 75.65712 13.140275 103.016235 5.192256 6.466272 22.552645 25.600051 80.9558 61.776995C301.595966 195.523507 302.68681 202.840146 301.681924 202.331563z" transform="translate(0, 812) scale(1, -1)"/>
</svg>
